<?xml version="1.0" standalone="no"?><!DOCTYPE svg PUBLIC "-//W3C//DTD SVG 1.1//EN" "http://www.w3.org/Graphics/SVG/1.1/DTD/svg11.dtd"><svg t="1630917894485" class="icon" viewBox="0 0 1024 1024" version="1.1" xmlns="http://www.w3.org/2000/svg" p-id="7614" width="64" height="64" xmlns:xlink="http://www.w3.org/1999/xlink"><defs><style type="text/css"></style></defs><path d="M974.336 914.944L760.832 701.44c58.368-70.656 93.696-160.768 93.696-259.072 0-224.256-182.272-407.04-407.04-407.04C223.232 35.328 40.96 217.6 40.96 442.368s182.272 407.04 407.04 407.04c96.768 0 185.344-33.792 255.488-90.624l213.504 213.504c8.192 8.192 18.432 11.776 28.672 11.776s20.992-4.096 28.672-11.776c15.872-15.872 15.872-41.472 0-57.344zM122.368 442.368c0-179.2 145.92-325.632 325.632-325.632 179.2 0 325.632 145.92 325.632 325.632S627.712 768 448 768c-179.712-0.512-325.632-146.432-325.632-325.632z" p-id="7615"></path><path d="M590.848 401.408h-102.4v-102.4c0-22.528-18.432-40.448-40.448-40.448-22.528 0-40.448 18.432-40.448 40.448v102.4h-102.4c-22.528 0-40.448 18.432-40.448 40.448 0 22.528 18.432 40.448 40.448 40.448h102.4v102.4c0 22.528 18.432 40.448 40.448 40.448 22.528 0 40.448-18.432 40.448-40.448v-102.4h102.4c22.528 0 40.448-18.432 40.448-40.448 0.512-22.016-17.92-40.448-40.448-40.448z" p-id="7616"></path></svg>